<svg width="208" height="208" viewBox="0 0 208 208" fill="none" xmlns="http://www.w3.org/2000/svg">
<g filter="url(#filter0_d_5_45)">
<path d="M200.667 63C180 44.3333 159.333 25.3333 138.667 6.66666C108.333 52.6667 57 93.6667 8.33333 123.333C7 129.667 5.66667 135.667 4 141.667C25.3333 161 46.6667 180.667 68 200C118.333 172.333 171.667 133 204 88.3333C203 80 201.667 71.6667 200.667 63Z" fill="#699635"/>
<path d="M72 175.333C51 156 30 136.667 9 117.667C61.3333 88 105.333 47.6667 137.667 0C158.667 19.3333 179.667 38.3333 200.667 57.6667C168.333 105.333 124.333 145.667 72 175.333Z" fill="#83BF4F"/>
<path d="M66.6667 162.667C52.6667 150 38.6667 137 24.6667 124.333C25.6667 123.667 26.3333 123.333 27.3333 122.667C30 121 30.6667 118 28.3333 115.667L26.3333 113.667C68.6667 87.6666 105.333 54.3333 134 15.6667L136 17.6667C138.333 19.6667 141.667 19.3333 143.667 17C144.333 16.3333 144.667 15.3333 145.333 14.6667C159.333 27.3333 173.333 40.3333 187.333 53C186.667 53.6667 186.333 54.6667 185.667 55.3333C183.667 58 184 61.6667 186.333 64L188.333 66C159.667 104.333 123 137.667 80.6667 163.667L78.6667 161.667C76.3333 159.667 72.3333 159.333 69.3333 161C68.3333 161.667 67.6667 162 66.6667 162.667ZM33.6667 124.667C45 135 56.3333 145.333 68 156C72.3333 154.667 77.3333 155 81.3333 157C120 132.333 153.667 101.667 180.667 66C178.333 62.3333 178 57.6667 179.667 53.6667C168.333 43.3333 157 33 145.333 22.3333C142.333 25 138 25.3333 134.333 23.3333C107.333 59.3333 73.6667 90 35 114.667C37 118 36.6667 122 33.6667 124.667Z" fill="#699635"/>
<path d="M64 117.667C67.6667 116.333 71.6667 116.667 74.3333 119C72.6667 120.333 70.6667 121.667 69 123C68.3333 122.333 66.6667 122.333 66 123C65 123.667 64.6667 124.667 65.6667 125.333C66.3333 126 68 126 69 125.333C73 122.667 78.6667 122.333 81.6667 125.333C84 127.667 84.3333 131 82 133.667C82.6667 134.333 83.3333 134.667 84 135.333C82.3333 136.333 80.6667 137.667 79 138.667C78.3333 138 77.6667 137.333 77 137C73.3333 138 69.3333 137.667 67 135.333C69 134 70.6667 133 72.6667 131.667C73.3333 132.333 75 132.333 76 131.667C77 131 77 130 76.3333 129.333C75.6667 128.667 74.3333 128.667 73.3333 129.333C71 131 68 131.667 65.3333 131.333C63.3333 131 61.6667 130.333 60.3333 129.333C58 127 58 124 60 121.333C59.3333 121 59 120.333 58.3333 119.667C60 118.667 61.6667 117.333 63.3333 116.333C63 116.667 63.6667 117 64 117.667ZM141.333 46.3333C144.333 44.3333 148 44.3333 150.333 46.6666L146.333 51.6666C145.667 51 144.333 51 143.667 52C143 53 143 54.3333 143.667 55C144.333 55.6666 145.667 55.6666 146.333 54.6666C149.333 51 154.333 50.3333 157.333 53C159.667 55.3333 160.333 59 159 62.3333C159.667 63 160.333 63.3333 161 64C159.667 65.6666 158.667 67 157.333 68.6666C156.667 68 156 67.3333 155.333 67C152.333 68.6666 149 68.6666 146.667 66.3333C148 64.6666 149.667 63 151 61.3333C151.667 62 153 62 153.667 61C154.333 60 154.333 58.6666 153.667 58C153 57.3333 151.667 57.3333 151 58.3333C149.333 60.3333 146.667 61.6666 144.333 61.6666C142.667 61.6666 141 61 139.667 60C137.333 57.6666 136.667 54.3333 138 51C137.333 50.6666 137 50 136.333 49.3333C137.667 48 139 46.3333 140 44.6666C140 45.3333 140.667 45.6666 141.333 46.3333ZM131.333 111.667C120.667 121.333 102.667 121 92.3333 111.667C82 102 82.6667 87 93.3333 77.3333C104 67.6666 120.667 66.6666 131 76.3333C141.667 85.6666 142 102 131.333 111.667Z" fill="#699635"/>
<path d="M70 75L133 132.667C140.333 126.667 147 120.333 153.667 113.667L91 56C84.3333 62.3333 77.3333 68.6667 70 75Z" fill="#FFDD7D"/>
<path d="M133.333 158C140.333 152.667 147.333 147 154 141.333V113.333C147.333 120 140.333 126.333 133.333 132.333V158Z" fill="#DBB471"/>
<path d="M37.6667 75.6667C41.3333 74.3334 44.3333 72.3334 47.3333 70C50.3333 67.6667 53 65.3334 56 62.6667C59 60.3334 62 57.6667 65.3333 56C68.6667 54 73 53 76.6667 53.6667C73 54.3334 69.6667 56 66.6667 58.3334C63.6667 60.3334 61 63 58 65.3334C55 67.6667 52 70.3334 48.6667 72.3334C45.3333 74.3334 41.3333 75.6667 37.6667 75.6667Z" fill="#8D9998"/>
<path d="M130 103.667C130 103.667 146.333 108.333 184.333 98.3333C222.333 88.3333 204.333 197.667 135 197.667C127.333 197.667 127 188 148.333 170.667C148.333 170.667 118.333 177.667 131.333 155.333C131.333 155.333 110 159 119.667 142C119.667 142 124 129.333 120 115C120.333 115 122.667 107.667 130 103.667Z" fill="#E8E8E8"/>
<path d="M202.333 109C203 138.333 179.667 187 133.333 187H132.667C128.333 194 130.333 198 135 198C187.667 197.667 210.667 135 202.333 109Z" fill="#D1D1D1"/>
<path d="M178.333 125C168.333 161 128.333 164 128.333 164C126.667 171.667 130 175 134.333 175C149 175.333 176.333 151 178.333 125ZM150.333 125C126.667 158.333 118.333 146 118.333 146C112.333 159.333 128 159.333 130.667 156.333C138.333 148 150.667 130.667 150.333 125Z" fill="#D1D1D1"/>
<path d="M132.333 188C136.333 182.667 141.333 178.333 146.333 174C151.333 169.667 156.333 165.333 161.333 160.667C166 156 170.667 150.667 174 144.667C177.333 138.667 179 131.667 178.333 125C177.667 131.667 175.333 138 171.667 143.333C168 148.667 163.667 153.667 159 158.333C154.333 163 149.333 167.333 144.667 172.333C139.667 176.667 135.333 182 132.333 188ZM128.333 164C129.667 160.333 131.667 157.333 134 154.333C136.333 151.333 138.667 148.667 141.333 145.667C143.667 142.667 146.333 139.667 148 136.333C150 133 151 128.667 150.333 125C149.667 128.667 148 132 145.667 135C143.667 138 141 140.667 138.667 143.667C136.333 146.667 133.667 149.667 131.667 153C129.667 156.333 128.333 160.333 128.333 164Z" fill="#8D9998"/>
<path d="M98 74C98 74 93.3333 57.6667 103.333 19.6667C113.333 -18.3333 4 -0.333322 4 69C4 76.6667 13.6667 77 31 55.6667C31 55.6667 24 85.6667 46.3333 72.6667C46.3333 72.6667 42.6667 94 59.6667 84.3333C59.6667 84.3333 72.3333 80 86.6667 84C86.6667 83.6667 94 81.3333 98 74Z" fill="#E8E8E8"/>
<path d="M92.6667 1.66663C63.3333 0.999965 14.6667 24.3333 14.6667 70.6666V71.3333C7.66667 75.3333 4 73.6666 4 69C4 16.3333 66.6667 -6.6667 92.6667 1.66663Z" fill="#D1D1D1"/>
<path d="M76.6667 25.6667C40.6667 35.6667 37.6667 75.6667 37.6667 75.6667C30 77.3334 26.6667 74.0001 26.6667 69.6667C26.3333 55.0001 50.6667 27.6667 76.6667 25.6667ZM76.6667 53.6667C43.3333 77.3334 55.6667 85.6667 55.6667 85.6667C42.3333 91.6667 42.3333 76.0001 45.3333 73.3334C53.6667 65.6667 71 53.3334 76.6667 53.6667Z" fill="#D1D1D1"/>
<path d="M13.6667 71.6667C19 67.6667 23.3333 62.6667 27.6667 57.6667C32 52.6667 36.3333 47.6667 41 42.6667C45.6667 38 51 33.3333 57 30C63 26.6667 70 25 76.6667 25.6667C70 26.3333 63.6667 28.6667 58.3333 32.3333C53 36 48 40.3333 43.3333 45C38.6667 49.6667 34.3333 54.6667 29.3333 59.3333C24.6667 64.3333 19.6667 68.6667 13.6667 71.6667Z" fill="#8D9998"/>
<path d="M37.6667 75.6667C41.3333 74.3334 44.3333 72.3334 47.3333 70C50.3333 67.6667 53 65.3334 56 62.6667C59 60.3334 62 57.6667 65.3333 56C68.6667 54 73 53 76.6667 53.6667C73 54.3334 69.6667 56 66.6667 58.3334C63.6667 60.3334 61 63 58 65.3334C55 67.6667 52 70.3334 48.6667 72.3334C45.3333 74.3334 41.3333 75.6667 37.6667 75.6667Z" fill="#8D9998"/>
</g>
<defs>
<filter id="filter0_d_5_45" x="0" y="0" width="208" height="208" filterUnits="userSpaceOnUse" color-interpolation-filters="sRGB">
<feFlood flood-opacity="0" result="BackgroundImageFix"/>
<feColorMatrix in="SourceAlpha" type="matrix" values="0 0 0 0 0 0 0 0 0 0 0 0 0 0 0 0 0 0 127 0" result="hardAlpha"/>
<feOffset dy="4"/>
<feGaussianBlur stdDeviation="2"/>
<feComposite in2="hardAlpha" operator="out"/>
<feColorMatrix type="matrix" values="0 0 0 0 0 0 0 0 0 0 0 0 0 0 0 0 0 0 0.25 0"/>
<feBlend mode="normal" in2="BackgroundImageFix" result="effect1_dropShadow_5_45"/>
<feBlend mode="normal" in="SourceGraphic" in2="effect1_dropShadow_5_45" result="shape"/>
</filter>
</defs>
</svg>
